<?xml version="1.0" encoding="UTF-8" standalone="no"?>
<!DOCTYPE svg PUBLIC "-//W3C//DTD SVG 1.1//EN" "http://www.w3.org/Graphics/SVG/1.1/DTD/svg11.dtd">
<svg width="100%" height="100%" viewBox="0 0 2000 2000" version="1.1" xmlns="http://www.w3.org/2000/svg" xmlns:xlink="http://www.w3.org/1999/xlink" xml:space="preserve" xmlns:serif="http://www.serif.com/" style="fill-rule:evenodd;clip-rule:evenodd;stroke-linejoin:round;stroke-miterlimit:2;">
    <g id="ChatGPT-Image-Mar-16--2026--03_18_31-PM.png" serif:id="ChatGPT Image Mar 16, 2026, 03_18_31 PM.png" transform="matrix(3.280533,0,0,2.981026,-140.460933,-539.208214)">
        <g transform="matrix(1,0,0,1,-1.957919,-0.924051)">
            <path d="M299.33,360.051C397.049,361.601 416.929,371.836 416.929,457.997C416.929,480.454 417.028,535.451 417.092,710.5C417.092,710.936 420.961,741.816 396.303,752.056C386.936,755.947 386.472,754.061 276.501,754.583C251.865,754.699 231.933,756.957 221.324,733.578C217.29,724.688 218.178,724.285 218.116,646.5C218.1,626.418 217.919,399.215 218.186,395.477C221.031,355.663 254.255,359.809 269.5,359.841C280.179,359.862 290.104,359.905 299.33,360.051Z" style="fill:white;"/>
        </g>
        <g transform="matrix(1,0,0,1,0.32469,-10.509059)">
            <path d="M299.33,348.587C299.564,348.305 299.267,347.783 299.501,347.501C299.84,347.091 307.814,346.989 308.538,346.98C312.619,346.928 344.052,346.528 359.499,344.496C416.88,336.945 432.808,328.377 437.399,227.494C438.37,206.148 436.658,196.577 438.501,196.502C440.567,196.418 439.534,197.702 439.933,209.44C440.126,215.139 441.666,260.537 445.516,280.497C449.69,302.134 454.755,325.719 480.602,336.258C500.047,344.186 536.337,346.546 543.487,346.753C569.495,347.505 571.052,346.462 570.82,348.641C570.672,350.034 551.124,348.894 540.494,349.429C470.873,352.936 462.185,370.736 457.917,376.788C437.036,406.4 441.841,510.145 440.834,530.631C440.651,534.348 439.02,532.469 438.908,532.298C438.716,532.006 438.712,526.945 438.712,526.479C438.645,433.169 435.077,391.071 414.925,370.093C393.556,347.848 334.703,349.323 301.556,349.262C299.485,348.644 299.513,348.625 299.33,348.587Z" style="fill:white;"/>
        </g>
    </g>
</svg>
